<svg id="visual" viewBox="0 0 1920 1080" width="1920" height="1080" xmlns="http://www.w3.org/2000/svg" xmlns:xlink="http://www.w3.org/1999/xlink" version="1.1"><rect x="0" y="0" width="1920" height="1080" fill="#E89EB9"></rect><path d="M0 860L32 859.5C64 859 128 858 192 866.3C256 874.7 320 892.3 384 872C448 851.7 512 793.3 576 785.8C640 778.3 704 821.7 768 821.5C832 821.3 896 777.7 960 755.7C1024 733.7 1088 733.3 1152 717.8C1216 702.3 1280 671.7 1344 650.2C1408 628.7 1472 616.3 1536 613.8C1600 611.3 1664 618.7 1728 644.2C1792 669.7 1856 713.3 1888 735.2L1920 757L1920 1081L1888 1081C1856 1081 1792 1081 1728 1081C1664 1081 1600 1081 1536 1081C1472 1081 1408 1081 1344 1081C1280 1081 1216 1081 1152 1081C1088 1081 1024 1081 960 1081C896 1081 832 1081 768 1081C704 1081 640 1081 576 1081C512 1081 448 1081 384 1081C320 1081 256 1081 192 1081C128 1081 64 1081 32 1081L0 1081Z" fill="#b76e79" stroke-linecap="round" stroke-linejoin="miter"></path></svg>