<svg id="visual" viewBox="0 0 1920 1080" width="1920" height="1080" xmlns="http://www.w3.org/2000/svg" xmlns:xlink="http://www.w3.org/1999/xlink" version="1.1"><rect x="0" y="0" width="1920" height="1080" fill="#E89EB9"></rect><path d="M0 218L32 218.5C64 219 128 220 192 211.7C256 203.3 320 185.7 384 206C448 226.3 512 284.7 576 292.2C640 299.7 704 256.3 768 256.5C832 256.7 896 300.3 960 322.3C1024 344.3 1088 344.7 1152 360.2C1216 375.7 1280 406.3 1344 427.8C1408 449.3 1472 461.7 1536 464.2C1600 466.7 1664 459.3 1728 433.8C1792 408.3 1856 364.7 1888 342.8L1920 321L1920 0L1888 0C1856 0 1792 0 1728 0C1664 0 1600 0 1536 0C1472 0 1408 0 1344 0C1280 0 1216 0 1152 0C1088 0 1024 0 960 0C896 0 832 0 768 0C704 0 640 0 576 0C512 0 448 0 384 0C320 0 256 0 192 0C128 0 64 0 32 0L0 0Z" fill="#FFC" stroke-linecap="round" stroke-linejoin="miter"></path></svg>